# xmcd
#
# Track frame offsets: 
#        150
#        14273
#        26478
#        39767
#        53679
#        66511
#        80101
#        94998
#        108400
#        120562
#        135639
#        149209
#        165748
#        179744
#        193059
#        204831
#        215190
#        230414
#        245152
#        257388
#        271454
#        282824
#        295059
#
# Disc length: 4097 seconds
#
# Revision: 1
# Processed by: cddbd v1.5.1PL0 Copyright (c) Steve Scherf et al.
# Submitted via: ExactAudioCopy v0.95a5
#
DISCID=630fff17
DTITLE=Jackson, Mahalia - Amazing Grace
DYEAR=2001
DGENRE=Gospel
TTITLE0=God's Gonna Separate The Wheat From The Tares
TTITLE1=Keep Me Every Day
TTITLE2=Oh My Lord
TTITLE3=God Shall Wipe All Tears Away
TTITLE4=I Want To Rest
TTITLE5=(I'm Going To) Wait Until My Change Comes
TTITLE6=I'm Going To Tell God
TTITLE7=What Could I Do
TTITLE8=Move On Up A Little Higher - Part One
TTITLE9=Move On Up A Little Higher - Part Two
TTITLE10=Even Me
TTITLE11=There's Not A Friend Like Jesus
TTITLE12=I Have A Friend
TTITLE13=Dig A Little Deeper
TTITLE14=Tired
TTITLE15=Amazing Grace
TTITLE16=Since The Fire Started Burning In My Soul
TTITLE17=I Can Put My Trust In Jesus
TTITLE18=Walk With Me
TTITLE19=Prayer Changes Things
TTITLE20=The Last Mile Of The Way
TTITLE21=Just Over The Hill - Part One
TTITLE22=Just Over The Hill - Part Two
EXTD=Cathfish Records, United Kingdom, 2001
EXTT0=
EXTT1=
EXTT2=
EXTT3=
EXTT4=
EXTT5=
EXTT6=
EXTT7=
EXTT8=
EXTT9=
EXTT10=
EXTT11=
EXTT12=
EXTT13=
EXTT14=
EXTT15=
EXTT16=
EXTT17=
EXTT18=
EXTT19=
EXTT20=
EXTT21=
EXTT22=
PLAYORDER=
